<svg width="204" height="121" viewBox="0 0 204 121" fill="none" xmlns="http://www.w3.org/2000/svg">
<path fill-rule="evenodd" clip-rule="evenodd" d="M101.901 71.4512C121.407 71.4512 137.215 55.6369 137.215 36.1303C137.215 16.6237 121.407 0.809326 101.901 0.809326C82.3937 0.809326 66.5796 16.6237 66.5796 36.1303C66.5796 55.6369 82.3937 71.4512 101.901 71.4512ZM82.3354 34.2744C82.3805 47.5773 92.4781 55.8581 102.179 55.8251L102.179 55.8248C114.158 55.786 121.244 45.9483 121.218 36.9671C121.186 27.9926 116.306 21.5034 105.553 18.8817C105.528 18.7714 105.508 18.5313 105.508 18.3042C105.489 11.523 110.602 5.53988 117.027 4.20957C116.423 4.00198 115.43 3.92407 114.483 3.92407C107.137 3.95021 99.0319 7.09743 93.1139 11.9903C87.053 17.013 82.303 25.4813 82.3354 34.2744Z" fill="#888888"/>
<path d="M10.7981 120.216L0 94.4477H7.05407L13.7898 111.56L20.318 94.4477H27.0538L16.5738 120.217L10.7981 120.216ZM45.8465 107.199C45.8465 106.128 45.7233 105.109 45.4701 104.143C45.2234 103.176 44.8472 102.345 44.3476 101.651C43.8478 100.95 43.2444 100.398 42.5305 99.9895C41.8167 99.5743 40.9796 99.3665 40.0192 99.3665C39.0588 99.3665 38.2151 99.5743 37.5078 99.9895C36.7941 100.398 36.184 100.95 35.6909 101.651C35.1911 102.345 34.8149 103.176 34.5683 104.143C34.3151 105.11 34.1917 106.128 34.1917 107.199C34.1917 108.309 34.3151 109.341 34.5681 110.288C34.8149 111.235 35.1781 112.066 35.6584 112.78C36.1385 113.494 36.7485 114.058 37.4818 114.474C38.2086 114.882 39.0588 115.09 40.0191 115.09C40.9796 115.09 41.8167 114.882 42.5305 114.474C43.2444 114.058 43.8478 113.494 44.3474 112.78C44.8472 112.066 45.2236 111.235 45.47 110.288C45.7232 109.341 45.8465 108.309 45.8465 107.199ZM52.3682 107.227C52.3682 108.908 52.1085 110.556 51.5959 112.179C51.0769 113.801 50.3111 115.248 49.2922 116.533C48.2799 117.818 46.995 118.85 45.4442 119.635C43.8933 120.42 42.0827 120.809 40.0192 120.809C37.9491 120.809 36.1387 120.42 34.5941 119.635C33.0432 118.85 31.7584 117.818 30.7395 116.533C29.7272 115.248 28.9616 113.801 28.4423 112.179C27.9298 110.556 27.6701 108.908 27.6701 107.227C27.6701 105.553 27.9298 103.918 28.4423 102.308C28.9616 100.706 29.7272 99.2716 30.7395 98.0062C31.7584 96.7408 33.0432 95.7285 34.5941 94.9627C36.1387 94.197 37.9491 93.8077 40.0192 93.8077C42.0827 93.8077 43.8868 94.1972 45.4184 94.9627C46.9496 95.7285 48.2345 96.7408 49.2663 98.0062C50.3046 99.2716 51.0769 100.706 51.5959 102.308C52.1085 103.918 52.3682 105.553 52.3682 107.227ZM72.2837 100.119C71.0053 99.6196 69.8177 99.3665 68.7144 99.3665C67.5854 99.3665 66.6055 99.5875 65.7945 100.015C64.9767 100.443 64.3018 101.021 63.7698 101.755C63.2376 102.488 62.8419 103.312 62.5758 104.227C62.3079 105.142 62.1724 106.09 62.1735 107.043C62.1735 108.114 62.2901 109.139 62.5237 110.126C62.751 111.106 63.1079 111.969 63.5882 112.702C64.0618 113.435 64.6653 114.026 65.3921 114.474C66.1189 114.915 66.9819 115.142 67.9748 115.142C68.7925 115.142 69.6231 114.915 70.4731 114.474C71.3233 114.026 71.9268 113.494 72.2837 112.89V100.119ZM72.8157 120.216L72.5497 118.244C71.9462 118.919 71.148 119.516 70.1486 120.028C69.1559 120.547 67.9813 120.807 66.6315 120.807C64.86 120.807 63.2895 120.431 61.9464 119.684C60.5901 118.938 59.4544 117.939 58.533 116.693C57.6115 115.447 56.9042 114 56.4239 112.358C55.9503 110.723 55.7102 109.01 55.7102 107.225C55.709 105.558 55.9584 103.899 56.45 102.306C56.9496 100.703 57.7024 99.2693 58.7146 98.004C59.7334 96.7384 60.999 95.7261 62.5304 94.9604C64.0553 94.1947 65.8527 93.8054 67.9099 93.8054C69.2597 93.8054 70.7198 94.0583 72.2837 94.5516V84.558H78.9091V120.216H72.8157ZM97.5721 108.133C96.8583 108.171 96.1187 108.238 95.3658 108.322C94.6452 108.408 93.9286 108.525 93.218 108.672C91.7773 108.958 90.7844 109.444 90.2262 110.139C89.6747 110.84 89.3959 111.592 89.3959 112.416C89.3959 113.267 89.7072 113.954 90.3366 114.474C90.966 114.986 91.8487 115.246 92.9972 115.246C93.8603 115.247 94.714 115.066 95.502 114.714C96.3068 114.357 97.0011 113.909 97.5721 113.377V108.133ZM98.1042 120.197L97.8447 118.27C97.1245 119.061 96.2159 119.684 95.1063 120.132C93.9966 120.58 92.7831 120.807 91.4593 120.807C90.3496 120.807 89.279 120.619 88.2667 120.242C87.2413 119.873 86.3394 119.334 85.5541 118.64C84.769 117.945 84.1329 117.095 83.6528 116.076C83.166 115.058 82.926 113.909 82.926 112.624C82.926 111.346 83.1725 110.21 83.6788 109.23C84.1784 108.25 84.8532 107.426 85.7164 106.745C86.5729 106.07 87.5593 105.518 88.6689 105.09C89.7721 104.662 90.9403 104.337 92.1537 104.123C93.0102 103.948 93.9511 103.818 94.97 103.727C95.9888 103.636 96.839 103.559 97.5202 103.487V103.111C97.5202 101.683 97.1568 100.671 96.4171 100.061C95.6838 99.4573 94.6715 99.1523 93.3866 99.1523C92.6338 99.1523 91.9136 99.2432 91.2321 99.425C90.5509 99.6001 89.9472 99.821 89.4087 100.087C88.8701 100.359 88.3963 100.625 87.9812 100.892C87.5723 101.158 87.2413 101.398 86.9883 101.612L84.7948 96.9655C85.0803 96.7126 85.5152 96.4139 86.1056 96.057C86.6963 95.7001 87.4035 95.3497 88.2472 95.0122C89.0844 94.6746 90.0251 94.3893 91.0766 94.1557C92.1277 93.9221 93.2633 93.8054 94.4704 93.8054C95.8979 93.8054 97.2024 93.9937 98.3769 94.37C99.5514 94.7462 100.57 95.3302 101.427 96.1349C102.277 96.9332 102.945 97.9455 103.432 99.1784C103.912 100.405 104.152 101.891 104.152 103.636V120.197H98.1042ZM124.632 90.4375C124.418 90.3338 124.003 90.1779 123.38 89.983C122.75 89.7885 121.926 89.691 120.888 89.691C119.966 89.691 119.188 89.9703 118.565 90.5217C117.942 91.0732 117.63 91.9752 117.63 93.2213V94.4477H123.192V99.7947H117.682V120.216H111.05V99.7947H107.63V94.4477H111.05V93.059C111.05 91.3847 111.264 89.9702 111.693 88.8085C112.121 87.6535 112.718 86.7059 113.484 85.9791C114.249 85.2459 115.151 84.7074 116.183 84.3699C117.222 84.0321 118.344 83.8637 119.558 83.8637C121.16 83.8637 122.484 84.013 123.536 84.3182C124.587 84.6233 125.203 84.8242 125.379 84.9346L124.632 90.4375ZM142.705 107.199C142.705 106.128 142.575 105.109 142.328 104.143C142.082 103.176 141.705 102.345 141.206 101.651C140.706 100.95 140.103 100.398 139.389 99.9895C138.675 99.5743 137.838 99.3665 136.877 99.3665C135.917 99.3665 135.073 99.5743 134.366 99.9895C133.652 100.398 133.042 100.95 132.543 101.651C132.049 102.345 131.673 103.176 131.42 104.143C131.173 105.11 131.05 106.128 131.05 107.199C131.05 108.309 131.173 109.341 131.42 110.288C131.673 111.235 132.036 112.066 132.517 112.78C132.997 113.494 133.607 114.058 134.334 114.474C135.067 114.882 135.917 115.09 136.877 115.09C137.838 115.09 138.675 114.882 139.389 114.474C140.103 114.058 140.706 113.494 141.206 112.78C141.705 112.066 142.082 111.235 142.328 110.288C142.575 109.341 142.705 108.309 142.705 107.199ZM149.227 107.227C149.227 108.908 148.967 110.556 148.448 112.179C147.935 113.801 147.169 115.248 146.151 116.533C145.138 117.818 143.853 118.85 142.302 119.635C140.752 120.42 138.941 120.809 136.878 120.809C134.807 120.809 132.997 120.42 131.452 119.635C129.902 118.85 128.617 117.818 127.598 116.533C126.586 115.248 125.82 113.801 125.301 112.179C124.787 110.578 124.526 108.908 124.528 107.227C124.528 105.553 124.782 103.918 125.301 102.308C125.82 100.706 126.586 99.2716 127.598 98.0062C128.617 96.7408 129.902 95.7285 131.452 94.9627C132.997 94.197 134.807 93.8077 136.878 93.8077C138.941 93.8077 140.745 94.1972 142.276 94.9627C143.808 95.7285 145.093 96.7408 146.125 98.0062C147.163 99.2716 147.935 100.706 148.448 102.308C148.967 103.918 149.227 105.553 149.227 107.227ZM169.804 120.216V105.518C169.804 103.559 169.395 102.04 168.577 100.969C167.753 99.9051 166.618 99.3667 165.151 99.3667C164.119 99.3667 163.165 99.6326 162.296 100.171C161.42 100.703 160.661 101.294 160.018 101.936V120.216H153.393V94.4477H159.434L159.752 96.4789C160.796 95.6216 161.982 94.9539 163.256 94.5061C164.554 94.039 165.865 93.8118 167.182 93.8118C168.538 93.8118 169.784 94.0129 170.926 94.4217C172.069 94.8371 173.048 95.4862 173.866 96.375C174.69 97.2641 175.32 98.4256 175.767 99.8468C176.209 101.274 176.436 102.988 176.436 104.98V120.216H169.804ZM197.059 104.233C196.987 103.344 196.799 102.566 196.494 101.91C196.189 101.248 195.813 100.716 195.365 100.308C194.917 99.8921 194.437 99.5938 193.918 99.3925C193.392 99.1981 192.867 99.1005 192.328 99.1005C191.179 99.1005 190.089 99.5287 189.051 100.385C188.013 101.242 187.403 102.52 187.221 104.234L197.059 104.233ZM187.065 108.99C187.208 111.164 187.883 112.734 189.103 113.695C190.316 114.655 191.893 115.142 193.82 115.142C194.716 115.142 195.56 115.058 196.345 114.902C197.13 114.74 197.831 114.538 198.441 114.285C199.051 114.039 199.57 113.786 199.998 113.539C200.427 113.286 200.745 113.052 200.965 112.838L202.73 118.244C202.477 118.419 202.075 118.659 201.523 118.964C200.972 119.269 200.284 119.548 199.466 119.821C198.648 120.087 197.682 120.314 196.578 120.515C195.475 120.709 194.262 120.807 192.944 120.807C191.264 120.807 189.674 120.541 188.155 120.009C186.643 119.47 185.313 118.639 184.177 117.517C183.035 116.394 182.127 114.999 181.452 113.325C180.771 111.65 180.433 109.652 180.433 107.335C180.433 105.161 180.745 103.234 181.368 101.56C181.991 99.8856 182.847 98.4776 183.931 97.3354C185.021 96.1997 186.286 95.3237 187.727 94.7137C189.174 94.1102 190.712 93.8053 192.354 93.8053C193.996 93.8053 195.508 94.078 196.903 94.61C198.292 95.1419 199.492 95.9726 200.511 97.0952C201.523 98.2179 202.328 99.6715 202.912 101.456C203.502 103.234 203.794 105.356 203.794 107.815V108.99L187.065 108.99Z" fill="#888888"/>
</svg>
